<svg width="800" height="800" viewBox="0 0 800 800" fill="none" xmlns="http://www.w3.org/2000/svg">
<path d="M305.078 380.312H333.984V460.703H359.688V380.312H388.516V357.5H305.078V380.312ZM475.625 414.219C475.625 427.969 467.891 442.187 451.641 442.187C435.156 442.187 432.344 426.953 432.344 414.687V357.578H406.641V422.031C406.641 443.125 417.812 463.672 444.609 463.672C459.844 463.672 472.031 454.453 476.562 444.141H476.953V460.703H501.406V357.578H475.625V414.219ZM527.656 460.703H553.438V357.578H527.656V460.703ZM346.875 343.984C351.016 343.984 355 342.344 357.891 339.453C360.781 336.562 362.422 332.578 362.422 328.437C362.422 324.297 360.781 320.312 357.891 317.422C355 314.531 351.016 312.891 346.875 312.891C344.844 312.891 342.812 313.281 340.937 314.062C339.062 314.844 337.344 316.016 335.859 317.422C334.453 318.906 333.281 320.625 332.5 322.5C331.719 324.375 331.328 326.406 331.328 328.437C331.328 337.031 338.281 343.984 346.875 343.984ZM613.203 343.984C615.234 343.984 617.266 343.594 619.141 342.812C621.016 342.031 622.734 340.859 624.219 339.453C625.703 337.969 626.797 336.25 627.578 334.375C628.359 332.5 628.75 330.469 628.75 328.437C628.75 325.391 627.813 322.344 626.094 319.766C624.375 317.187 621.953 315.234 619.141 314.062C616.328 312.891 613.203 312.578 610.156 313.203C607.109 313.828 604.375 315.312 602.187 317.5C600 319.687 598.516 322.422 597.969 325.469C597.344 328.516 597.656 331.641 598.828 334.453C600 337.266 602.031 339.687 604.531 341.406C607.109 343.125 610.156 343.984 613.203 343.984ZM571.484 357.5V380.391H600.391V460.781H626.094V380.312H655V357.5H571.484ZM145.078 460.703H170.859V357.578H145.078V460.703ZM254.063 354.531C238.828 354.531 226.641 363.75 222.109 374.062H221.719V357.5H197.266V460.625H222.969V403.906C222.969 390.156 230.703 375.938 247.031 375.938C263.516 375.938 266.328 391.25 266.328 403.438V460.625H292.109V396.172C292.031 375.156 280.859 354.531 254.063 354.531Z" fill="#0077C5"/>
</svg>
