<svg width="800" height="800" viewBox="0 0 800 800" fill="none" xmlns="http://www.w3.org/2000/svg">
<path d="M670.539 261.005C614.301 261.005 577.58 299.524 577.58 363.209C577.58 442.302 633.818 464.9 674.134 464.9C704.436 464.9 733.197 452.574 753.998 430.746L728.061 404.81C714.194 417.136 698.273 424.583 674.648 424.583C643.319 424.583 622.262 406.351 622.262 381.185H761.958C761.701 380.928 786.097 261.005 670.539 261.005ZM622.262 346.774C622.262 312.877 647.941 296.699 675.418 296.699C702.895 296.699 727.804 313.391 727.804 346.774H622.262Z" fill="#00DC06"/>
<path d="M156.18 343.436C138.204 341.125 86.5886 343.18 86.5886 319.554C86.5886 305.687 108.416 297.983 128.189 297.983C149.246 297.726 169.79 303.633 187.252 314.932L214.216 288.225C206.255 281.805 176.723 261.005 128.189 261.005C84.0206 261.005 44.2174 284.116 44.2174 321.095C44.2174 377.846 112.782 377.846 141.286 380.671C158.748 382.469 174.412 383.496 174.412 400.444C174.412 416.366 150.274 425.097 131.528 425.097C100.969 425.097 82.7366 415.082 64.761 398.904L36 427.921C60.9091 452.06 94.5492 465.156 129.217 464.9C180.575 464.9 217.811 442.302 217.811 396.849C217.811 366.804 197.524 348.829 156.18 343.436Z" fill="#00DC06"/>
<path d="M303.58 261.005C275.076 260.748 247.085 270.506 224.744 288.225L251.707 315.189C266.858 303.89 285.091 297.983 303.837 298.24C337.99 298.24 348.262 311.85 348.262 327.258V346.518H287.402C264.804 346.518 220.635 352.167 220.635 401.729C220.635 438.193 241.436 464.9 291.254 464.9C316.163 464.9 335.166 456.939 348.262 441.275V461.048H392.431V330.34C392.431 284.63 364.44 261.005 303.58 261.005ZM348.519 389.659C348.519 427.408 321.556 425.354 297.674 425.354C273.792 425.354 257.87 418.934 257.87 401.985C257.87 386.321 270.453 380.928 296.646 380.928H348.519V389.659Z" fill="#00DC06"/>
<path d="M528.789 265.114V286.941C513.638 269.736 495.663 261.005 471.267 261.005C429.41 261.005 407.839 284.373 400.649 309.539C397.824 318.784 397.054 336.502 397.054 362.696C397.054 387.348 397.311 409.946 405.785 427.151C417.854 451.29 446.872 464.9 471.267 464.9C494.892 464.9 514.922 455.655 528.789 439.734V452.06C528.789 466.441 523.91 475.942 514.666 483.389C505.421 490.836 493.865 495.458 477.687 495.458C463.05 495.458 449.183 487.498 441.222 481.848L411.434 511.636C430.694 527.301 453.549 537.829 478.458 538.086C502.34 538.6 525.708 530.896 544.454 515.745C562.173 501.878 573.472 475.428 573.472 447.695V265.114H528.789ZM528.789 362.696C528.789 377.846 528.533 389.145 527.249 395.052C524.424 407.635 510.043 424.326 483.85 424.326C477.174 424.326 443.79 420.474 439.938 391.456C438.911 381.955 438.398 372.197 438.654 362.696C438.654 340.098 439.682 332.907 440.709 327.258C443.02 315.959 457.914 299.01 483.85 299.01C515.436 299.01 525.708 320.581 527.249 329.055C528.533 340.098 529.046 351.397 528.789 362.696Z" fill="#00DC06"/>
</svg>
