<svg width="800" height="800" viewBox="0 0 800 800" fill="none" xmlns="http://www.w3.org/2000/svg">
<path d="M0 202.075V597.95H404.3L800 202.075H0ZM108.875 275.775H109C137.775 275.775 172.8 283.875 198.175 296.875L170.85 344.55C142.975 331.025 129.05 329.85 113.175 328.925C89.6 327.625 77.75 336.1 77.475 345.2C77.35 356.3 99.875 366.3 121.1 373.2C153.125 383.375 194 397.025 200.275 436.5L259 281.3H327.2L395.975 467.1L395.7 281.3H474.725C550 281.3 585.4 306.8 585.4 365.275C585.4 417.75 549.1 449.15 487.5 449.15H462.1L461.725 518.925L342.2 518.8L333.875 488.475C321.5 492.65 307.575 494.875 292.85 494.875C277.625 494.875 263.275 492.5 250.675 488.25L238.8 518.825L172.125 518.95L175.125 503.575C174.1 504.5 173.15 505.275 172.125 506.075C154.425 520.375 131.9 527.05 104.3 527.55H97.125C67.05 527.95 37.35 520.15 11.2 505.15L35.525 456.85C61.825 472.475 78.4 475.85 100.65 475.475C112.225 475.2 120.55 473.1 126.025 467.5C129.3 464.125 131.125 459.825 131.25 455.125C131.475 442.625 113.525 436.8 91.775 430C74.075 424.525 53.875 417 38.25 405.4C19.65 391.875 10.65 374.675 11.175 350.475C11.3 333.275 18.075 316.875 30.05 304.65C47.375 286.675 75.25 275.85 108.85 275.85L108.875 275.775ZM461.975 331.375V394.95H479.45C502.475 394.95 520.975 387.25 520.975 362.775C520.975 339.075 502.475 331.375 479.45 331.375H461.975ZM292.425 357.025L267.55 435.65C274.975 438.525 283.575 440.075 292.675 440.075C301.675 440.075 310.15 438.5 317.4 435.9L292.925 356.875L292.425 357.025Z" fill="white"/>
</svg>
