<svg width="800" height="800" viewBox="0 0 800 800" fill="none" xmlns="http://www.w3.org/2000/svg">
<path d="M409.044 252.127C435.445 251.22 462.018 255.18 486.919 263.991C524.378 277.104 557.858 301.134 582.355 332.261C593.131 345.917 602.157 360.928 609.231 376.809C610.485 379.452 611.452 382.422 610.78 385.367C609.958 390.31 605.612 394.396 600.615 394.89C595.424 395.647 590.06 392.417 588.209 387.541C574.142 354.532 550.135 325.861 520.188 306.014C501.675 293.678 480.912 284.695 459.221 279.665C431.249 273.141 401.798 273.141 373.82 279.645C333.872 288.818 297.295 311.667 271.498 343.416C260.559 356.793 251.528 371.705 244.719 387.569C243.246 391.256 239.86 394.146 235.91 394.793C232.101 395.526 227.954 394.214 225.298 391.385C222.166 388.257 221.142 383.256 222.757 379.15C241.495 334.973 276.192 297.862 318.851 275.772C346.635 261.271 377.716 253.182 409.044 252.127Z" fill="#F49813"/>
<path d="M374.024 388.112C373.866 385.819 376.035 384.103 378.184 384.049C380.976 383.974 383.776 383.998 386.574 384.037C388.519 384.103 390.788 385.4 390.78 387.584C390.88 413.24 390.72 438.903 390.866 464.574C401.256 453.015 411.735 441.519 422.162 429.994C424.216 427.968 425.839 424.899 429.033 424.635C433.337 424.457 437.651 424.563 441.96 424.568C443.62 424.419 445.473 425.942 444.89 427.715C444.209 429.084 442.96 430.023 441.94 431.11C430.665 442.381 419.347 453.613 408.13 464.933C418.965 477.308 429.651 489.81 440.438 502.231C441.825 503.998 443.563 505.498 444.726 507.447C445.579 508.97 444.166 510.824 442.534 510.896C438.952 511.097 435.362 510.896 431.771 510.982C429.904 510.939 427.885 511.212 426.19 510.249C424.403 509.223 423.317 507.389 422.039 505.846C411.634 492.738 401.299 479.578 390.857 466.493C390.751 479.397 390.826 492.296 390.817 505.191C390.777 506.68 391.081 508.473 389.786 509.559C387.723 511.551 384.653 510.852 382.079 510.982C379.795 510.904 377.123 511.404 375.268 509.717C374.234 508.913 373.963 507.539 374.004 506.317C374.033 466.91 373.992 427.508 374.024 388.112Z" fill="#3069B5"/>
<path d="M326.585 424.353C331.792 422.673 337.661 422.354 342.761 424.568C344.55 425.411 346.629 427.208 345.82 429.423C345.003 432.203 344.307 435.016 343.332 437.748C342.612 439.709 340.344 440.437 338.435 440.054C334.14 439.315 329.922 437.892 325.519 438.035C322.446 437.963 319.61 439.617 317.508 441.76C314.117 445.087 312.362 449.739 311.573 454.355C310.948 457.691 311.126 461.099 311.098 464.469C311.098 478.632 311.103 492.804 311.095 506.967C311.295 509.296 308.893 510.878 306.797 510.959C303.918 510.999 301.045 511.036 298.17 510.936C296.091 510.826 293.752 509.305 294.021 506.958C294.01 480.732 293.993 454.514 294.027 428.287C293.85 425.678 296.73 424.261 298.99 424.505C301.826 424.692 305.696 423.622 307.539 426.484C308.938 429.802 309.603 433.386 310.917 436.733C314.87 431.292 320.112 426.495 326.585 424.353Z" fill="#3069B5"/>
<path d="M32 426.864C32.8023 425.949 33.7397 424.96 35.0769 425.055C38.9934 425.017 42.9214 424.932 46.8351 425.112C48.8222 425.169 50.1909 426.904 50.4814 428.741C54.3317 444.299 58.1131 459.881 61.9463 475.444C63.0706 480.25 64.4394 485.008 65.1727 489.897C65.9289 494.288 66.0785 498.746 66.7973 503.146C67.7866 496.866 68.6722 490.545 70.3774 484.41C75.3896 465.835 80.3988 447.262 85.4167 428.692C85.8078 426.575 87.8121 425.069 89.9429 425.069C94.3022 424.96 98.6703 425.035 103.03 425.035C105.368 424.926 107.87 426.284 108.433 428.664C112.177 442.205 115.875 455.771 119.605 469.324C121.867 478.101 124.832 486.731 126.112 495.737C126.465 498.217 126.811 500.703 127.325 503.166C128.731 489.017 132.395 475.25 135.409 461.395C137.896 450.371 140.329 439.336 142.845 428.312C143.216 426.098 145.574 424.984 147.65 425.046C151.176 425.026 154.707 424.926 158.227 425.104C160.317 425.164 161.519 427.461 160.782 429.313C153.709 455.249 146.661 481.202 139.584 507.138C139.204 509.218 137.381 510.841 135.245 510.875C129.781 511.052 124.306 510.918 118.843 510.947C116.884 511.067 114.814 510.024 114.468 507.975C109.577 490.139 104.784 472.273 99.9384 454.423C98.1843 448.213 97.474 441.776 96.7379 435.39C95.8378 441.076 95.3921 446.857 93.8681 452.443C88.9077 470.821 83.9185 489.208 78.9466 507.589C78.3859 510.567 74.9611 511.161 72.4133 510.967C67.3322 510.875 62.2511 511.084 57.1757 510.875C55.3669 510.881 53.9723 509.481 53.6474 507.784C46.516 481.95 39.4075 456.105 32.2703 430.278C32.023 429.15 32.0546 427.998 32 426.864Z" fill="#3069B5"/>
<path d="M673.571 425.053C677.302 424.99 681.047 424.975 684.778 425.053C687.048 425.085 689.182 426.628 689.896 428.784C696.34 445.517 702.737 462.283 709.171 479.026C710.516 482.423 711.456 485.967 712.058 489.565C714.718 479.635 718.26 469.971 721.37 460.17C724.831 449.573 728.295 438.973 731.771 428.372C732.286 426.528 734.056 425.269 735.936 425.113C738.981 424.889 742.046 425.085 745.097 425.004C746.882 425.024 749.008 424.817 750.367 426.24C751.249 426.982 751.061 428.214 750.693 429.177C740.398 458.365 730.132 487.568 719.851 516.764C718.064 521.628 716.69 526.718 713.813 531.093C709.686 537.755 702.997 542.552 695.646 545.148C693.078 545.938 690.426 547.691 687.664 546.708C685.703 546.211 684.951 544.185 683.904 542.696C683.153 541.345 681.765 540.095 682.053 538.413C682.19 536.746 683.534 535.39 685.119 534.944C688.219 533.881 691.371 532.708 693.882 530.532C699.984 525.402 703.758 517.814 705.195 510.09C704.22 506.662 702.418 503.508 701.111 500.189C691.293 477.511 681.475 454.825 671.634 432.155C671.041 430.672 670.167 429.258 670 427.648C670.023 425.881 672.062 425.105 673.571 425.053Z" fill="#3069B5"/>
<path d="M217.702 435.588C212.363 436.58 207.493 439.906 204.783 444.641C200.254 452.321 199.732 461.587 199.936 470.297C200.259 478.182 201.525 486.592 206.553 492.965C210.304 497.759 216.468 500.167 222.46 500.074C228.223 500.259 234.261 498.306 238.167 493.923C243.157 488.463 244.761 480.887 245.447 473.743C245.75 466.727 245.891 459.583 244.072 452.731C242.625 446.942 239.568 441.154 234.28 438.036C229.359 435.017 223.279 434.734 217.702 435.588ZM219.957 423.1C229.619 422.506 239.742 424.513 247.716 430.238C254.849 435.314 259.693 443.136 261.956 451.522C264.646 461.535 264.634 472.221 262.195 482.286C259.897 491.564 254.523 500.311 246.416 505.583C237.752 511.334 226.868 512.828 216.699 511.602C208.036 510.535 199.593 506.734 193.562 500.348C186.472 492.919 182.952 482.684 182.219 472.567C181.329 461.347 183.047 449.472 189.286 439.891C193.902 432.68 201.24 427.383 209.425 424.966C212.838 423.899 216.4 423.403 219.957 423.1Z" fill="#3069B5"/>
<path d="M504.548 435.579C499.258 435.917 494.151 438.952 491.79 443.767C487.177 452.671 487.082 463.033 487.312 472.824C487.681 479.221 488.378 485.825 491.367 491.601C493.388 495.492 497.061 498.564 501.403 499.506C508.047 501.099 515.866 499.75 520.588 494.516C525.138 489.35 526.636 482.327 527.335 475.681C527.816 468.104 527.846 460.371 525.959 452.955C524.663 447.996 522.469 443.044 518.529 439.598C514.751 436.282 509.486 435.004 504.548 435.579ZM527.312 387.543C527.192 385.533 529.251 384.25 531.041 384.095C533.907 383.94 536.781 384.014 539.652 384.046C541.841 384.026 544.289 385.648 543.972 388.071C543.972 427.62 543.98 467.161 543.966 506.704C544.116 508.745 542.1 510.33 540.208 510.454C537.924 510.574 535.635 510.574 533.36 510.416C531.756 510.316 530.201 509.291 529.654 507.761C528.796 505.191 528.349 502.521 527.695 499.908C524.528 504.192 520.444 507.982 515.37 509.862C508.133 512.518 500.078 512.561 492.64 510.752C485.167 508.961 478.659 503.841 475.053 497.103C469.394 486.815 468.723 474.713 469.078 463.237C469.279 453.432 471.157 443.087 477.564 435.306C482.396 428.71 490.316 424.926 498.313 423.936C505.758 422.85 513.829 424.099 519.992 428.596C522.906 430.64 525.239 433.382 527.321 436.247C527.263 420.017 527.278 403.78 527.312 387.543Z" fill="#3069B5"/>
<path d="M607.461 435.617C604.779 436.161 602.18 437.23 600.012 438.899C595.677 442.253 593.523 447.584 592.374 452.76C590.7 460.973 590.723 469.454 591.588 477.759C592.397 483.861 593.939 490.373 598.441 494.885C602.108 498.711 607.637 500.113 612.81 499.861C618.374 500.061 624.164 498.002 627.753 493.659C632.239 488.265 633.505 481.091 634.16 474.333C634.576 466.386 634.582 458.248 632.336 450.533C630.916 445.727 628.32 440.947 623.94 438.208C619.116 435.062 613.013 434.773 607.461 435.617ZM600.012 424.709C607.733 422.584 615.996 422.459 623.795 424.232C631.041 425.901 637.826 429.943 642.279 435.929C646.987 442.065 649.364 449.674 650.353 457.256C651.212 463.103 650.965 469.026 650.973 474.917C650.973 485.547 650.973 496.18 650.944 506.808C651.061 508.103 650.237 509.251 649.175 509.925C647.379 511.024 645.154 510.538 643.151 510.662C640.905 510.645 637.952 510.842 636.729 508.52C635.536 505.79 635.289 502.745 634.523 499.873C631.512 503.511 628.393 507.265 624.033 509.367C617.393 512.629 609.629 512.438 602.523 511.059C593.828 509.352 585.82 504.243 580.903 496.88C575.046 488.306 572.921 477.722 573.002 467.493C572.93 457.522 574.894 447.213 580.472 438.778C584.933 431.881 592.091 426.887 600.012 424.709Z" fill="#3069B5"/>
<path d="M754.134 490.508C749.821 492.093 747.106 497.073 748.207 501.569C749.33 506.848 755.465 510.45 760.583 508.498C765.303 507.056 768.279 501.669 766.815 496.92C765.53 491.576 759.195 488.417 754.134 490.508ZM754.732 488.252C757.29 487.848 760.071 487.819 762.445 489.006C766.488 490.844 769.394 495.189 768.956 499.708C769.293 505.098 764.762 509.916 759.593 510.783C753.773 512.021 747.51 507.801 746.324 501.991C744.795 496.143 748.854 489.561 754.732 488.252Z" fill="#3069B5"/>
<path d="M756.048 494.079C756.04 495.314 756.035 496.55 756.048 497.793C757.054 497.727 758.088 497.793 759.08 497.497C760.013 497.081 759.92 495.803 759.667 494.947C758.702 493.93 757.267 494.194 756.048 494.079ZM753.014 492.069C755.915 492.247 759.168 491.365 761.781 493.109C763.888 494.812 762.867 498.517 760.488 499.307C761.174 501.26 762.128 503.076 763 504.937C761.902 504.96 760.822 504.98 759.742 505C758.961 503.277 758.195 501.533 757.448 499.795C756.973 499.781 756.507 499.775 756.048 499.767C756.04 501.504 756.04 503.242 756.04 504.98C755.013 504.966 754.008 504.951 753 504.942C753.008 500.648 752.995 496.354 753.014 492.069Z" fill="#3069B5"/>
</svg>
