<svg width="800" height="800" viewBox="0 0 800 800" fill="none" xmlns="http://www.w3.org/2000/svg">
<path d="M194.898 399.899L263.022 331.455C265.28 329.179 266.542 326.121 266.542 322.886C266.542 316.13 261.067 310.655 254.329 310.655C251.04 310.655 247.964 311.935 245.653 314.299L177.564 382.441L109.209 314.175C106.898 311.899 103.84 310.655 100.587 310.655C93.8311 310.655 88.3734 316.13 88.3734 322.868C88.3734 326.157 89.6889 329.268 92.0356 331.579L160.16 399.793L92.0711 468.059C89.6889 470.441 88.3734 473.535 88.3734 476.824C88.3734 483.579 93.8489 489.055 100.587 489.055C103.84 489.055 106.898 487.81 109.209 485.499L177.476 417.197L245.476 485.233C247.893 487.721 250.987 489.055 254.329 489.055C261.049 489.055 266.524 483.579 266.524 476.824C266.524 473.57 265.28 470.513 262.969 468.201L194.88 399.828L194.898 399.899ZM599.893 399.881C599.893 412.148 609.849 422.104 622.116 422.104C634.311 422.104 644.267 412.148 644.267 399.881C644.267 387.615 634.311 377.659 622.098 377.659C609.884 377.659 599.947 387.615 599.947 399.881H599.893ZM557.849 399.881C557.849 364.415 586.649 335.526 622.098 335.526C657.476 335.526 686.329 364.415 686.329 399.881C686.329 435.348 657.493 464.237 622.098 464.237C586.667 464.237 557.849 435.384 557.849 399.881ZM532.569 399.881C532.569 449.304 572.747 489.553 622.098 489.553C671.449 489.553 711.627 449.339 711.627 399.899C711.627 350.477 671.449 310.228 622.098 310.228C572.729 310.228 532.569 350.459 532.569 399.899V399.881ZM526.222 311.757H522.489C511.2 311.757 500.32 315.313 491.236 322.335C489.991 316.895 485.084 312.735 479.253 312.735C472.551 312.735 467.164 318.157 467.164 324.895L467.2 475.917C467.2 482.619 472.711 488.077 479.378 488.077C486.098 488.077 491.573 482.619 491.591 475.881V383.01C491.591 352.077 494.436 339.561 520.889 336.255C523.378 335.953 526.009 336.006 526.044 336.006C533.262 335.739 538.418 330.744 538.418 324.006C538.418 317.25 532.907 311.775 526.151 311.775L526.222 311.757ZM291.804 385.144C291.804 384.788 291.84 384.433 291.858 384.113C298.933 356.024 324.32 335.277 354.524 335.277C385.102 335.277 410.702 356.504 417.458 385.09H291.787L291.804 385.144ZM442.436 382.833C437.173 357.89 423.538 337.393 402.791 324.237C372.427 304.93 332.356 305.997 303.058 326.904C279.129 343.917 265.316 371.793 265.316 400.504C265.316 407.704 266.204 414.975 267.982 422.139C277.013 457.695 307.556 484.646 343.964 489.108C354.773 490.424 365.298 489.819 376.142 486.975C385.529 484.664 394.578 480.895 402.916 475.526C411.573 469.961 418.809 462.601 425.849 453.801C425.956 453.624 426.098 453.499 426.24 453.321C431.111 447.277 430.204 438.637 424.871 434.548C420.356 431.081 412.782 429.677 406.844 437.321C405.564 439.17 404.124 441.055 402.578 442.921C397.831 448.166 391.947 453.233 384.907 457.179C375.911 461.979 365.707 464.699 354.862 464.77C319.342 464.361 300.356 439.526 293.582 421.819C292.409 418.495 291.502 415.064 290.862 411.508L290.684 409.641H418.151C435.609 409.25 444.996 396.895 442.4 382.797L442.436 382.833Z" fill="#1FC0E7"/>
</svg>
